<svg width="56" height="56" viewBox="0 0 56 56" fill="none" xmlns="http://www.w3.org/2000/svg">
<circle cx="28" cy="28" r="27.5735" fill="white" stroke="white" stroke-width="0.853067"/>
<path d="M29.8702 27.4998C29.8702 33.2988 25.1982 38 19.4349 38C13.6716 38 9 33.3002 9 27.4998C9 21.6994 13.6719 17 19.4349 17C25.1979 17 29.8702 21.7009 29.8702 27.4998ZM41.3178 27.4998C41.3178 32.9588 38.9816 37.3838 36.1001 37.3838C33.2187 37.3838 30.8825 32.9574 30.8825 27.4998C30.8825 22.0422 33.2187 17.6158 36.1001 17.6158C38.9816 17.6158 41.3178 22.0422 41.3178 27.4998ZM46 27.4998C46 32.3908 45.1783 36.3555 44.1649 36.3555C43.1515 36.3555 42.3298 32.3894 42.3298 27.4998C42.3298 22.6102 43.1515 18.6441 44.1652 18.6441C45.179 18.6441 46 22.6092 46 27.4998Z" fill="black"/>
</svg>
