<svg width="56" height="56" viewBox="0 0 56 56" fill="none" xmlns="http://www.w3.org/2000/svg">
<circle cx="28" cy="28" r="28" fill="black"/>
<g clip-path="url(#clip0_81_35)">
<path fill-rule="evenodd" clip-rule="evenodd" d="M31.2787 22.5703C32.444 21.9892 33.9268 21.1338 35.4114 19.9619C35.7244 20.6119 35.7587 21.1792 35.5974 21.6372C35.4831 21.96 35.2678 22.2408 34.9846 22.4641C34.6779 22.7055 34.2949 22.8813 33.8716 22.9763C33.0683 23.1572 32.1304 23.0516 31.2787 22.5703ZM31.4807 28.5241L33.0233 29.4151C29.8736 31.1804 29.0173 34.4584 28.0002 37.6512C26.9832 34.4584 26.1268 31.1804 22.9772 29.4151L24.5198 28.5241C24.669 28.4677 24.7966 28.3655 24.8842 28.2322C24.9718 28.0988 25.0149 27.9412 25.0074 27.7818C24.8661 24.7917 25.6735 23.4695 26.7625 22.6392C27.1531 22.3418 27.5795 22.1925 28.0002 22.1925C28.4209 22.1925 28.8473 22.3418 29.238 22.6392C30.3271 23.4695 31.1344 24.7917 30.9931 27.7818C30.9856 27.9412 31.0287 28.0988 31.1163 28.2322C31.2039 28.3655 31.3315 28.4677 31.4807 28.5241ZM28.0002 9C29.7833 9.04787 31.5709 9.39403 33.1222 10.0674C34.1965 10.5343 35.1989 11.1511 36.1066 11.8886C36.5165 12.2216 36.854 12.5432 37.2258 12.9135C38.2286 12.9482 39.6942 11.8342 40.3745 10.7917C39.2036 14.6305 33.8604 19.1637 30.1612 20.8983C30.1597 20.8976 30.1587 20.8968 30.1575 20.896C29.4937 20.3891 28.747 20.1356 28.0002 20.1356C27.2534 20.1356 26.5069 20.3891 25.843 20.896C25.8418 20.8966 25.8408 20.8978 25.8393 20.8983C22.14 19.1637 16.7969 14.6305 15.626 10.7917C16.3062 11.8342 17.7718 12.9482 18.7745 12.9135C19.1465 12.5434 19.484 12.2216 19.8938 11.8886C20.8015 11.1511 21.8039 10.5343 22.8782 10.0674C24.4297 9.39403 26.2172 9.04787 28.0002 9ZM24.7217 22.5703C23.5565 21.9892 22.0736 21.1338 20.5892 19.9619C20.2761 20.6119 20.2418 21.1792 20.403 21.6372C20.5174 21.96 20.7328 22.2408 21.0158 22.4641C21.3226 22.7055 21.7056 22.8813 22.129 22.9763C22.9323 23.1572 23.87 23.0516 24.7217 22.5703Z" fill="white"/>
<path fill-rule="evenodd" clip-rule="evenodd" d="M37.0371 18.5258C37.8544 17.7011 38.5745 16.7882 39.1535 15.9736L39.4476 16.5271C40.3944 18.4213 40.8864 20.3079 40.8864 22.4311L40.8843 25.8002L40.9021 27.5468C40.9707 31.8345 41.8984 36.1727 44 40.1427L39.6029 36.5971L36.4917 41.6458L33.2231 38.5689L28 47.0449L22.7769 38.569L19.5084 41.646L16.3972 36.5972L12 40.1428C14.1016 36.1728 15.0293 31.8347 15.098 27.5469L15.1158 25.8004L15.1138 22.4312C15.1138 20.3079 15.6056 18.4213 16.5526 16.5272L16.8466 15.9737C17.4257 16.7883 18.1457 17.7011 18.963 18.526L18.7078 19.0561C18.2119 20.0858 18.0477 21.2372 18.434 22.3322C18.683 23.0374 19.1375 23.6423 19.7234 24.104C20.2923 24.5524 20.9656 24.8546 21.6705 25.0133C22.1297 25.1167 22.5975 25.1592 23.0622 25.1447C22.9538 25.7595 22.9064 26.3971 22.9034 27.0467L18.7556 29.4424L21.9563 31.2366C22.2121 31.38 22.4557 31.5443 22.6844 31.7279C25.3233 34.0971 26.9098 41.1063 28.0001 44.5299C29.0905 41.1063 30.677 34.0971 33.3159 31.7279C33.5447 31.5443 33.7882 31.38 34.0441 31.2366L37.2448 29.4424L33.0969 27.0467C33.0938 26.3971 33.0465 25.7595 32.938 25.1447C33.4028 25.1592 33.8706 25.1167 34.3298 25.0133C35.0347 24.8546 35.7081 24.5524 36.2768 24.104C36.8626 23.6423 37.3172 23.0374 37.5661 22.3322C37.9525 21.2372 37.7882 20.086 37.2924 19.0561L37.0372 18.526L37.0371 18.5258Z" fill="white"/>
</g>
<defs>
<clipPath id="clip0_81_35">
<rect width="32" height="38.0952" fill="white" transform="translate(12 9)"/>
</clipPath>
</defs>
</svg>
