<svg width="56" height="56" viewBox="0 0 56 56" fill="none" xmlns="http://www.w3.org/2000/svg">
<circle cx="28" cy="28" r="27.5735" fill="white" stroke="white" stroke-width="0.853067"/>
<g clip-path="url(#clip0_81_17)">
<path d="M41.3048 31.511C41.0198 31.7044 40.6872 31.8186 40.3419 31.8414C39.9967 31.8643 39.6516 31.7949 39.3429 31.6408C38.6184 31.2375 38.2279 30.292 38.2279 29.0035V25.0545C38.2279 23.1587 37.4658 21.81 36.1908 21.4438C34.0361 20.8227 32.4271 23.4229 31.8061 24.4009L27.9953 30.4774V23.0614C27.953 21.3511 27.3884 20.3268 26.3204 20.0209C25.6147 19.8169 24.5562 19.9003 23.5259 21.4484L15.0058 34.9224C13.8721 32.7856 13.2843 30.4087 13.2933 27.9977C13.2933 19.8772 19.8798 13.2723 27.9953 13.2723C36.1108 13.2723 42.7209 19.8772 42.7209 27.9977V28.0394C42.7209 28.0394 42.7209 28.0672 42.7209 28.0811C42.8008 29.6524 42.2833 30.9038 41.3095 31.511H41.3048ZM46.0094 28.0023V27.9235C45.9435 18.0278 37.8892 10 27.9953 10C18.1014 10 10 18.0742 10 27.9977C10 37.9212 18.0732 46 27.9953 46C32.546 45.9998 36.9236 44.2813 40.2274 41.1981C40.5481 40.9005 40.7368 40.4903 40.7526 40.0565C40.7685 39.6227 40.6102 39.2003 40.3121 38.8806C40.1694 38.7252 39.9969 38.599 39.8046 38.5095C39.6123 38.4199 39.4039 38.3687 39.1914 38.3588C38.9789 38.3489 38.7665 38.3805 38.5664 38.4518C38.3663 38.523 38.1826 38.6325 38.0256 38.774C36.6032 40.1033 34.9228 41.1357 33.0854 41.8093C31.2479 42.4828 29.2912 42.7836 27.3328 42.6935C25.3744 42.6035 23.4547 42.1245 21.6888 41.2853C19.923 40.4461 18.3475 39.264 17.057 37.81L24.7256 25.6663V31.27C24.7256 33.9629 25.7841 34.8343 26.6733 35.0892C27.5625 35.3441 28.9221 35.168 30.3476 32.8876L34.5818 26.1344C34.7135 25.9166 34.8406 25.7312 34.9535 25.5689V29.0035C34.9535 31.5203 35.9791 33.5319 37.7763 34.5238C38.5935 34.9584 39.5143 35.1684 40.4422 35.1317C41.3702 35.095 42.271 34.8129 43.0502 34.3152C45.0261 33.0498 46.1035 30.7601 45.9906 28.0023H46.0094Z" fill="#17181B"/>
</g>
<defs>
<clipPath id="clip0_81_17">
<rect width="36" height="36" fill="white" transform="translate(10 10)"/>
</clipPath>
</defs>
</svg>
