<svg width="56" height="56" viewBox="0 0 56 56" fill="none" xmlns="http://www.w3.org/2000/svg">
<circle cx="28" cy="28" r="28" fill="#855DCD"/>
<path d="M17.3195 14H37.3136V42.432H34.3787V29.4083H34.3499C34.0255 25.8088 31.0005 22.9882 27.3166 22.9882C23.6327 22.9882 20.6076 25.8088 20.2832 29.4083H20.2544V42.432H17.3195V14Z" fill="white"/>
<path d="M12 18.0355L13.1923 22.071H14.2012V38.3964C13.6947 38.3964 13.284 38.8071 13.284 39.3136V40.4142H13.1006C12.5941 40.4142 12.1834 40.8248 12.1834 41.3314V42.432H22.4556V41.3314C22.4556 40.8248 22.045 40.4142 21.5385 40.4142H21.355V39.3136C21.355 38.8071 20.9444 38.3964 20.4379 38.3964H19.3373V18.0355H12Z" fill="white"/>
<path d="M34.5621 38.3964C34.0556 38.3964 33.645 38.8071 33.645 39.3136V40.4142H33.4615C32.955 40.4142 32.5444 40.8248 32.5444 41.3314V42.432H42.8166V41.3314C42.8166 40.8248 42.4059 40.4142 41.8994 40.4142H41.716V39.3136C41.716 38.8071 41.3054 38.3964 40.7988 38.3964V22.071H41.8077L43 18.0355H35.6627V38.3964H34.5621Z" fill="white"/>
</svg>
