<svg width="56" height="56" viewBox="0 0 56 56" fill="none" xmlns="http://www.w3.org/2000/svg">
<g clip-path="url(#clip0_81_3)">
<path d="M28 56C43.464 56 56 43.464 56 28C56 12.536 43.464 0 28 0C12.536 0 0 12.536 0 28C0 43.464 12.536 56 28 56Z" fill="url(#paint0_linear_81_3)"/>
<path d="M18.9536 30.0468L22.2756 39.2415C22.2756 39.2415 22.6909 40.1018 23.1356 40.1018C23.5804 40.1018 30.1951 33.2204 30.1951 33.2204L37.551 19.0127L19.0721 27.6733L18.9536 30.0468Z" fill="#C8DAEA"/>
<path d="M23.3579 32.4048L22.7202 39.1822C22.7202 39.1822 22.4532 41.2589 24.5294 39.1822C26.6056 37.1056 28.5929 35.5042 28.5929 35.5042" fill="#A9C6D8"/>
<path d="M19.0135 30.3749L12.1801 28.1484C12.1801 28.1484 11.3634 27.8171 11.6264 27.0657C11.6805 26.9108 11.7897 26.779 12.1164 26.5524C13.6305 25.497 40.1411 15.9684 40.1411 15.9684C40.1411 15.9684 40.8897 15.7162 41.3311 15.8839C41.4403 15.9177 41.5386 15.98 41.6159 16.0642C41.6932 16.1485 41.7467 16.2517 41.771 16.3634C41.8187 16.5608 41.8386 16.7638 41.8302 16.9666C41.8281 17.1421 41.8069 17.3047 41.7908 17.5597C41.6293 20.1649 36.7975 39.6081 36.7975 39.6081C36.7975 39.6081 36.5084 40.7458 35.4726 40.7848C35.218 40.793 34.9645 40.7499 34.7269 40.658C34.4894 40.5661 34.2728 40.4274 34.0901 40.25C32.0575 38.5016 25.0323 33.7804 23.48 32.742C23.4449 32.7182 23.4155 32.6871 23.3935 32.6509C23.3715 32.6146 23.3575 32.5741 23.3526 32.532C23.3309 32.4226 23.4499 32.287 23.4499 32.287C23.4499 32.287 35.6826 21.4137 36.0081 20.2722C36.0333 20.1838 35.9381 20.1402 35.8102 20.1789C34.9978 20.4778 20.9133 29.3722 19.3588 30.3539C19.2469 30.3877 19.1287 30.3949 19.0135 30.3749Z" fill="white"/>
</g>
<defs>
<linearGradient id="paint0_linear_81_3" x1="28" y1="56" x2="28" y2="0" gradientUnits="userSpaceOnUse">
<stop stop-color="#1D93D2"/>
<stop offset="1" stop-color="#38B0E3"/>
</linearGradient>
<clipPath id="clip0_81_3">
<rect width="56" height="56" fill="white"/>
</clipPath>
</defs>
</svg>
