<svg width="56" height="56" viewBox="0 0 56 56" fill="none" xmlns="http://www.w3.org/2000/svg">
<path d="M55.9666 27.8804C56.0019 39.209 49.2612 49.4435 38.8149 53.8197C28.3686 58.1959 16.3342 55.8666 8.28771 47.8907C0.241233 39.9148 -2.19389 27.8804 2.07639 17.3988C6.34667 6.91723 16.5459 0.0706579 27.8392 7.4797e-05C43.3322 -0.0352168 55.896 12.4227 55.9666 27.8804Z" fill="#8DC63F"/>
<path d="M53.8845 27.8804C53.9198 38.362 47.6732 47.8201 38.0033 51.8787C28.3334 55.9372 17.2166 53.7491 9.77004 46.4085C2.32352 39.0325 0.0648562 27.9157 4.01751 18.2458C7.97017 8.54062 17.393 2.22343 27.8393 2.15285C42.1677 2.08227 53.8139 13.5873 53.8845 27.8804Z" fill="#F9E988"/>
<path d="M28.4746 3.81154C30.1333 3.52921 31.792 3.52921 33.4507 3.81154C35.1094 4.05858 36.7328 4.62325 38.2151 5.39966C39.6973 6.21137 40.9678 7.30541 42.2383 8.32886C43.5088 9.35232 44.7793 10.4111 45.9792 11.5757C47.2144 12.705 48.2732 14.0108 49.1555 15.4225C50.073 16.8341 50.8142 18.3517 51.3788 19.9045C52.4729 23.0807 52.8258 26.504 52.2964 29.7508H52.12C51.5906 26.504 50.8495 23.4336 49.6848 20.5044C49.1555 19.0222 48.4849 17.5752 47.7791 16.1989C47.0027 14.8225 46.191 13.4461 45.2734 12.1756C44.3558 10.8699 43.1912 9.70524 41.8854 8.75237C40.5796 7.79949 39.0621 7.19954 37.6151 6.63487C36.1682 6.07021 34.6859 5.47025 33.1684 5.01146C31.6508 4.58796 30.098 4.23504 28.4746 3.91742V3.81154Z" fill="white"/>
<path d="M41.1089 18.7399C39.2384 18.2105 37.2974 17.4341 35.3211 16.6577C35.2152 16.1636 34.7564 15.5636 33.8741 14.7872C32.6036 13.6579 30.1685 13.6932 28.0863 14.1873C25.7923 13.6579 23.4984 13.4461 21.3103 13.9755C3.41749 18.9163 13.5462 30.9155 6.98193 43.0205C7.89951 44.9968 17.9929 56.5724 32.5683 53.4668C32.5683 53.4668 27.5922 41.5029 38.8502 35.7504C47.9907 31.0919 54.555 22.4102 41.1089 18.7399Z" fill="#8BC53F"/>
<path d="M28.0864 14.1873C29.3922 14.2932 34.1213 15.8107 35.3212 16.6577C34.2977 13.7285 30.9098 13.3403 28.0864 14.1873Z" fill="#009345"/>
<path d="M43.3322 26.6099C43.3322 27.5628 42.1676 28.0569 41.497 27.3863C40.8265 26.7158 41.2853 25.5512 42.2381 25.5159C42.8381 25.5512 43.3322 26.0099 43.3322 26.6099ZM29.3214 21.6338C29.3214 23.6454 28.0862 25.4806 26.2158 26.257C24.3453 27.0334 22.1925 26.6099 20.7456 25.163C19.2986 23.716 18.8751 21.5632 19.6515 19.6928C20.428 17.8223 22.2631 16.5871 24.2747 16.5871C25.6158 16.5871 26.8863 17.1165 27.8039 18.0341C28.7921 19.0222 29.3214 20.2927 29.3214 21.6338Z" fill="white"/>
<path d="M27.8393 21.6691C27.8393 23.0808 26.9923 24.3866 25.6512 24.9159C24.3454 25.4453 22.8279 25.163 21.8044 24.1395C20.781 23.1161 20.4987 21.6338 21.028 20.2927C21.5574 18.987 22.8632 18.1047 24.2749 18.1047C26.2512 18.14 27.8393 19.7281 27.8393 21.6691Z" fill="#58595B"/>
<path d="M47.3909 28.8333C43.3323 31.6919 38.7091 33.8447 32.1802 33.8447C29.1098 33.8447 28.5099 30.5979 26.463 32.186C25.4042 32.9977 21.7339 34.8328 18.8047 34.727C15.8755 34.5858 11.1464 32.8565 9.84065 26.6452C9.31128 32.8918 9.06424 37.4797 6.69971 42.7382C11.3582 50.22 22.475 55.9725 32.5684 53.5021C31.4744 45.9144 38.1092 38.5032 41.8148 34.727C43.2618 33.2447 45.9792 30.9155 47.3909 28.8333Z" fill="#8BC53F"/>
<path d="M47.2145 29.0097C45.944 30.1743 44.4617 31.0213 42.9442 31.7624C41.3914 32.5036 39.8033 33.0682 38.1446 33.527C36.4858 33.9505 34.7566 34.2681 33.0273 34.127C31.2627 33.9858 29.4981 33.3859 28.3335 32.0801L28.4041 32.0095C29.8157 32.9271 31.4744 33.2447 33.0979 33.3153C34.7566 33.3506 36.4153 33.2447 38.0387 32.9271C39.6621 32.5742 41.2855 32.0801 42.8383 31.4448C44.3912 30.8096 45.9087 30.0685 47.2498 29.0097H47.2145Z" fill="#58595B"/>
</svg>
