<svg width="143" height="38" viewBox="0 0 143 38" fill="none" xmlns="http://www.w3.org/2000/svg">
<path fill-rule="evenodd" clip-rule="evenodd" d="M38.5516 19.4175C38.5516 29.6475 30.1283 37.9407 19.7376 37.9407C9.87946 37.9407 1.7922 30.476 0.989014 20.9745H25.8569V17.8605H0.989014C1.7922 8.359 9.87946 0.894287 19.7376 0.894287C30.1283 0.894287 38.5516 9.18739 38.5516 19.4175ZM108.302 34.585C114.822 34.585 119.097 31.1195 119.097 25.9007C119.097 21.0576 115.88 18.7613 111.012 17.968L106.694 17.2583C103.392 16.7155 101.191 15.296 101.191 12.1647C101.191 8.99162 103.646 6.5701 108.302 6.5701C112.832 6.5701 115.16 8.82464 115.414 12.0394H118.674C118.42 7.78087 115.118 3.98155 108.345 3.98155C101.656 3.98155 97.9734 7.69735 97.9734 12.2899C97.9734 17.1748 101.318 19.4293 105.89 20.1808L110.25 20.8488C113.89 21.4751 115.922 22.9364 115.922 26.0259C115.922 29.6582 112.917 31.9962 108.345 31.9962C103.604 31.9962 100.64 29.7417 100.386 25.9007H97.1691C97.4231 30.9108 101.318 34.585 108.302 34.585ZM60.2425 34.0003H48.3893V4.60782H59.8192C64.8568 4.60782 68.3702 7.53037 68.3702 12.2064C68.3702 15.5882 66.423 17.8428 63.2906 18.5943V18.7195C67.0157 19.4293 69.3015 21.9343 69.3015 25.8589C69.3015 30.9108 65.5341 34.0003 60.2425 34.0003ZM59.3959 17.5088C62.9943 17.5088 65.1955 15.5882 65.1955 12.5822V12.1647C65.1955 9.15863 62.9943 7.27984 59.3959 7.27984H51.5644V17.5088H59.3959ZM59.7769 31.3282C63.7139 31.3282 66.1267 29.199 66.1267 25.9424V25.5249C66.1267 22.1431 63.6716 20.0973 59.7345 20.0973H51.5644V31.3282H59.7769ZM94.9403 34.0003H91.5536L89.0137 26.0259H77.1606L74.6208 34.0003H71.4033L81.1823 4.60782H85.0344L94.9403 34.0003ZM83.2565 7.8226H83.0025L78.0072 23.3956H88.2095L83.2565 7.8226ZM123.866 34.0003V4.60782H143V7.3216H127.041V17.4253H141.73V20.0973H127.041V31.2865H143V34.0003H123.866Z" fill="white"/>
</svg>
